<?xml version="1.0" encoding="UTF-8" standalone="no"?>
<svg
   xmlns:dc="http://purl.org/dc/elements/1.1/"
   xmlns:cc="http://creativecommons.org/ns#"
   xmlns:rdf="http://www.w3.org/1999/02/22-rdf-syntax-ns#"
   xmlns:svg="http://www.w3.org/2000/svg"
   xmlns="http://www.w3.org/2000/svg"
   xmlns:xlink="http://www.w3.org/1999/xlink"
   xmlns:sodipodi="http://sodipodi.sourceforge.net/DTD/sodipodi-0.dtd"
   xmlns:inkscape="http://www.inkscape.org/namespaces/inkscape"
   viewBox="1 1 500 500"
   version="1.1"
   id="svg170"
   sodipodi:docname="chrome-logo.svg"
   inkscape:version="0.92.4 5da689c313, 2019-01-14"
   width="500"
   height="500"
   inkscape:export-filename="/home/cassidyjames/Projects/cassidyjames/talks/fdo-dark-style/resources/chrome-logo.png"
   inkscape:export-xdpi="96"
   inkscape:export-ydpi="96">
  <metadata
     id="metadata174">
    <rdf:RDF>
      <cc:Work
         rdf:about="">
        <dc:format>image/svg+xml</dc:format>
        <dc:type
           rdf:resource="http://purl.org/dc/dcmitype/StillImage" />
        <dc:title />
      </cc:Work>
    </rdf:RDF>
  </metadata>
  <sodipodi:namedview
     pagecolor="#ffffff"
     bordercolor="#666666"
     borderopacity="1"
     objecttolerance="10"
     gridtolerance="10"
     guidetolerance="10"
     inkscape:pageopacity="0"
     inkscape:pageshadow="2"
     inkscape:window-width="2560"
     inkscape:window-height="1377"
     id="namedview172"
     showgrid="false"
     inkscape:zoom="1.3409091"
     inkscape:cx="-37.661016"
     inkscape:cy="88.000001"
     inkscape:window-x="0"
     inkscape:window-y="30"
     inkscape:window-maximized="1"
     inkscape:current-layer="svg170"
     fit-margin-top="0"
     fit-margin-left="0"
     fit-margin-right="0"
     fit-margin-bottom="0" />
  <defs
     id="defs36">
    <circle
       id="a"
       cy="96"
       cx="96"
       r="88" />
    <linearGradient
       inkscape:collect="always"
       xlink:href="#c"
       id="linearGradient545"
       gradientUnits="userSpaceOnUse"
       x1="29.337"
       y1="75.021004"
       x2="81.836998"
       y2="44.354" />
    <linearGradient
       inkscape:collect="always"
       xlink:href="#d"
       id="linearGradient547"
       gradientUnits="userSpaceOnUse"
       x1="110.87"
       y1="164.5"
       x2="52.537998"
       y2="130.33" />
    <linearGradient
       inkscape:collect="always"
       xlink:href="#g"
       id="linearGradient549"
       gradientUnits="userSpaceOnUse"
       x1="121.86"
       y1="49.804001"
       x2="136.55"
       y2="114.13" />
    <linearGradient
       inkscape:collect="always"
       xlink:href="#g"
       id="linearGradient551"
       gradientUnits="userSpaceOnUse"
       x1="121.86"
       y1="49.804001"
       x2="136.55"
       y2="114.13" />
    <linearGradient
       inkscape:collect="always"
       xlink:href="#c"
       id="linearGradient553"
       gradientUnits="userSpaceOnUse"
       x1="29.337"
       y1="75.021004"
       x2="81.836998"
       y2="44.354" />
    <linearGradient
       inkscape:collect="always"
       xlink:href="#d"
       id="linearGradient555"
       gradientUnits="userSpaceOnUse"
       x1="110.87"
       y1="164.5"
       x2="52.537998"
       y2="130.33" />
  </defs>
  <clipPath
     id="b">
    <use
       width="100%"
       overflow="visible"
       xlink:href="#a"
       height="100%"
       id="use38"
       style="overflow:visible"
       x="0"
       y="0" />
  </clipPath>
  <radialGradient
     id="l"
     gradientUnits="userSpaceOnUse"
     cy="55.948002"
     cx="668.17999"
     gradientTransform="translate(-576)"
     r="84.078003">
    <stop
       stop-color="#3E2723"
       stop-opacity=".2"
       offset="0"
       id="stop106" />
    <stop
       stop-color="#3E2723"
       stop-opacity="0"
       offset="1"
       id="stop108" />
  </radialGradient>
  <radialGradient
     id="p"
     gradientUnits="userSpaceOnUse"
     cy="48.52"
     cx="597.88"
     gradientTransform="translate(-576)"
     r="78.043999">
    <stop
       stop-color="#3E2723"
       stop-opacity=".2"
       offset="0"
       id="stop127" />
    <stop
       stop-color="#3E2723"
       stop-opacity="0"
       offset="1"
       id="stop129" />
  </radialGradient>
  <radialGradient
     id="q"
     gradientUnits="userSpaceOnUse"
     cy="96.138"
     cx="671.84003"
     gradientTransform="translate(-576)"
     r="87.870003">
    <stop
       stop-color="#263238"
       stop-opacity=".2"
       offset="0"
       id="stop134" />
    <stop
       stop-color="#263238"
       stop-opacity="0"
       offset="1"
       id="stop136" />
  </radialGradient>
  <radialGradient
     id="r"
     gradientUnits="userSpaceOnUse"
     cy="32.014"
     cx="34.285999"
     gradientTransform="translate(-7,-7)"
     r="176.75">
    <stop
       stop-color="#fff"
       stop-opacity=".1"
       offset="0"
       id="stop163" />
    <stop
       stop-color="#fff"
       stop-opacity="0"
       offset="1"
       id="stop165" />
  </radialGradient>
  <g
     id="g543"
     transform="matrix(2.8409091,0,0,2.8409091,-1.8409091,-1.8409091)">
    <g
       id="g50"
       clip-path="url(#b)"
       transform="translate(-7,-7)">
      <path
         id="path41"
         d="M 21.97,8 V 116 H 61.36 L 96,56 h 88 V 8 Z"
         inkscape:connector-curvature="0"
         style="fill:#db4437" />
      <linearGradient
         x1="29.337"
         x2="81.836998"
         y1="75.021004"
         gradientUnits="userSpaceOnUse"
         y2="44.354"
         id="c">
        <stop
           id="stop43"
           offset="0"
           stop-opacity=".6"
           stop-color="#A52714" />
        <stop
           id="stop45"
           offset=".66"
           stop-opacity="0"
           stop-color="#A52714" />
      </linearGradient>
      <path
         id="path48"
         d="M 21.97,8 V 116 H 61.36 L 96,56 h 88 V 8 Z"
         style="fill:url(#linearGradient545)"
         inkscape:connector-curvature="0" />
    </g>
    <path
       id="path52"
       transform="translate(-7,-7)"
       d="m 62.31,115.65 -39.83,-68.31 -0.58,1 39.54,67.8 z"
       clip-path="url(#b)"
       inkscape:connector-curvature="0"
       style="fill:#3e2723;fill-opacity:0.15" />
    <g
       id="g63"
       clip-path="url(#b)"
       transform="translate(-7,-7)">
      <path
         id="path54"
         d="m 8,184 h 83.77 l 38.88,-38.88 V 116 H 61.36 L 8,24.48 Z"
         inkscape:connector-curvature="0"
         style="fill:#0f9d58" />
      <linearGradient
         x1="110.87"
         x2="52.537998"
         y1="164.5"
         gradientUnits="userSpaceOnUse"
         y2="130.33"
         id="d">
        <stop
           id="stop56"
           offset="0"
           stop-opacity=".4"
           stop-color="#055524" />
        <stop
           id="stop58"
           offset=".33"
           stop-opacity="0"
           stop-color="#055524" />
      </linearGradient>
      <path
         id="path61"
         d="m 8,184 h 83.77 l 38.88,-38.88 V 116 H 61.36 L 8,24.48 Z"
         style="fill:url(#linearGradient547)"
         inkscape:connector-curvature="0" />
    </g>
    <path
       id="path65"
       transform="translate(-7,-7)"
       d="M 129.84,117.33 129.01,116.85 90.62,184 h 1.15 l 38.1,-66.64 z"
       clip-path="url(#b)"
       inkscape:connector-curvature="0"
       style="fill:#263238;fill-opacity:0.15" />
    <g
       id="g84"
       clip-path="url(#b)"
       transform="translate(-7,-7)">
      <defs
         id="defs68">
        <path
           d="m 8,184 h 83.77 l 38.88,-38.88 V 116 H 61.36 L 8,24.48 Z"
           id="e"
           inkscape:connector-curvature="0" />
      </defs>
      <clipPath
         id="f">
        <use
           id="use70"
           height="100%"
           xlink:href="#e"
           overflow="visible"
           width="100%"
           style="overflow:visible"
           x="0"
           y="0" />
      </clipPath>
      <g
         id="g82"
         clip-path="url(#f)">
        <path
           id="path73"
           d="m 96,56 34.65,60 -38.88,68 H 184 V 56 Z"
           inkscape:connector-curvature="0"
           style="fill:#ffcd40" />
        <linearGradient
           x1="121.86"
           x2="136.55"
           y1="49.804001"
           gradientUnits="userSpaceOnUse"
           y2="114.13"
           id="g">
          <stop
             id="stop75"
             offset="0"
             stop-opacity=".3"
             stop-color="#EA6100" />
          <stop
             id="stop77"
             offset=".66"
             stop-opacity="0"
             stop-color="#EA6100" />
        </linearGradient>
        <path
           id="path80"
           d="m 96,56 34.65,60 -38.88,68 H 184 V 56 Z"
           style="fill:url(#linearGradient549)"
           inkscape:connector-curvature="0" />
      </g>
    </g>
    <g
       id="g90"
       clip-path="url(#b)"
       transform="translate(-7,-7)">
      <path
         id="path86"
         d="m 96,56 34.65,60 -38.88,68 H 184 V 56 Z"
         inkscape:connector-curvature="0"
         style="fill:#ffcd40" />
      <path
         id="path88"
         d="m 96,56 34.65,60 -38.88,68 H 184 V 56 Z"
         style="fill:url(#linearGradient551)"
         inkscape:connector-curvature="0" />
    </g>
    <g
       id="g104"
       clip-path="url(#b)"
       transform="translate(-7,-7)">
      <defs
         id="defs93">
        <path
           d="m 96,56 34.65,60 -38.88,68 H 184 V 56 Z"
           id="i"
           inkscape:connector-curvature="0" />
      </defs>
      <clipPath
         id="j">
        <use
           id="use95"
           height="100%"
           xlink:href="#i"
           overflow="visible"
           width="100%"
           style="overflow:visible"
           x="0"
           y="0" />
      </clipPath>
      <g
         id="g102"
         clip-path="url(#j)">
        <path
           id="path98"
           d="M 21.97,8 V 116 H 61.36 L 96,56 h 88 V 8 Z"
           inkscape:connector-curvature="0"
           style="fill:#db4437" />
        <path
           id="path100"
           d="M 21.97,8 V 116 H 61.36 L 96,56 h 88 V 8 Z"
           style="fill:url(#linearGradient553)"
           inkscape:connector-curvature="0" />
      </g>
    </g>
    <path
       id="path111"
       transform="translate(-7,-7)"
       d="M 96,56 V 76.95 L 174.4,56 Z"
       clip-path="url(#b)"
       style="fill:url(#l)"
       inkscape:connector-curvature="0" />
    <g
       id="g125"
       clip-path="url(#b)"
       transform="translate(-7,-7)">
      <defs
         id="defs114">
        <path
           d="M 21.97,8 V 48.34 L 61.36,116 96,56 h 88 V 8 Z"
           id="m"
           inkscape:connector-curvature="0" />
      </defs>
      <clipPath
         id="n">
        <use
           id="use116"
           height="100%"
           xlink:href="#m"
           overflow="visible"
           width="100%"
           style="overflow:visible"
           x="0"
           y="0" />
      </clipPath>
      <g
         id="g123"
         clip-path="url(#n)">
        <path
           id="path119"
           d="m 8,184 h 83.77 l 38.88,-38.88 V 116 H 61.36 L 8,24.48 Z"
           inkscape:connector-curvature="0"
           style="fill:#0f9d58" />
        <path
           id="path121"
           d="m 8,184 h 83.77 l 38.88,-38.88 V 116 H 61.36 L 8,24.48 Z"
           style="fill:url(#linearGradient555)"
           inkscape:connector-curvature="0" />
      </g>
    </g>
    <path
       id="path132"
       transform="translate(-7,-7)"
       d="M 21.97,48.45 79.22,105.69 61.36,116 Z"
       clip-path="url(#b)"
       style="fill:url(#p)"
       inkscape:connector-curvature="0" />
    <path
       id="path139"
       transform="translate(-7,-7)"
       d="m 91.83,183.89 20.96,-78.2 17.86,10.31 z"
       clip-path="url(#b)"
       style="fill:url(#q)"
       inkscape:connector-curvature="0" />
    <g
       id="g145"
       clip-path="url(#b)"
       transform="translate(-7,-7)">
      <circle
         id="circle141"
         r="40"
         cx="96"
         cy="96"
         style="fill:#f1f1f1" />
      <circle
         id="circle143"
         r="32"
         cx="96"
         cy="96"
         style="fill:#4285f4" />
    </g>
    <g
       id="g155"
       clip-path="url(#b)"
       transform="translate(-7,-7)">
      <path
         id="path147"
         d="M 96,55 C 73.91,55 56,72.91 56,95 v 1 C 56,73.91 73.91,56 96,56 h 88 v -1 z"
         inkscape:connector-curvature="0"
         style="fill:#3e2723;fill-opacity:0.2" />
      <path
         id="path149"
         d="m 130.6,116 c -6.92,11.94 -19.81,20 -34.6,20 -14.8,0 -27.69,-8.06 -34.61,-20 H 61.35 L 8,24.48 v 1 L 61.36,117 h 0.04 c 6.92,11.94 19.81,20 34.61,20 14.79,0 27.68,-8.05 34.6,-20 h 0.05 v -1 z"
         inkscape:connector-curvature="0"
         style="fill:#ffffff;fill-opacity:0.1" />
      <path
         id="path151"
         d="m 97,56 c -0.17,0 -0.33,0.02 -0.5,0.03 21.86,0.27 39.5,18.05 39.5,39.97 0,21.92 -17.64,39.7 -39.5,39.97 0.17,0 0.33,0.03 0.5,0.03 22.09,0 40,-17.91 40,-40 0,-22.09 -17.91,-40 -40,-40 z"
         inkscape:connector-curvature="0"
         style="opacity:0.1;fill:#3e2723" />
      <path
         id="path153"
         d="m 131,117.33 c 3.4,-5.88 5.37,-12.68 5.37,-19.96 0,-4.22 -0.66,-8.28 -1.87,-12.09 0.95,3.42 1.5,7.01 1.5,10.73 0,7.28 -1.97,14.08 -5.37,19.96 l 0.02,0.04 -38.88,68 h 1.16 l 38.09,-66.64 z"
         inkscape:connector-curvature="0"
         style="fill:#ffffff;fill-opacity:0.2" />
    </g>
    <g
       id="g161"
       clip-path="url(#b)"
       transform="translate(-7,-7)">
      <path
         id="path157"
         d="m 96,9 c 48.43,0 87.72,39.13 87.99,87.5 0,-0.17 0.01,-0.33 0.01,-0.5 C 184,47.4 144.6,8 96,8 47.4,8 8,47.4 8,96 8,96.17 8.01,96.33 8.01,96.5 8.28,48.13 47.57,9 96,9 Z"
         inkscape:connector-curvature="0"
         style="fill:#ffffff;fill-opacity:0.2" />
      <path
         id="path159"
         d="m 96,183 c 48.43,0 87.72,-39.13 87.99,-87.5 0,0.17 0.01,0.33 0.01,0.5 0,48.6 -39.4,88 -88,88 C 47.4,184 8,144.6 8,96 8,95.83 8.01,95.67 8.01,95.5 8.28,143.87 47.57,183 96,183 Z"
         inkscape:connector-curvature="0"
         style="fill:#3e2723;fill-opacity:0.15" />
    </g>
    <circle
       id="circle168"
       r="88"
       cx="89"
       cy="89"
       style="fill:url(#r)" />
  </g>
</svg>
