<?xml version="1.0" encoding="UTF-8" standalone="no"?>
<svg
   xmlns:dc="http://purl.org/dc/elements/1.1/"
   xmlns:cc="http://creativecommons.org/ns#"
   xmlns:rdf="http://www.w3.org/1999/02/22-rdf-syntax-ns#"
   xmlns:svg="http://www.w3.org/2000/svg"
   xmlns="http://www.w3.org/2000/svg"
   xmlns:sodipodi="http://sodipodi.sourceforge.net/DTD/sodipodi-0.dtd"
   xmlns:inkscape="http://www.inkscape.org/namespaces/inkscape"
   version="1.1"
   viewBox="0 0 500 500"
   id="svg40"
   sodipodi:docname="iOS-logo.svg"
   inkscape:version="0.92.4 5da689c313, 2019-01-14"
   width="500"
   height="500"
   inkscape:export-filename="/home/cassidyjames/Projects/cassidyjames/talks/fdo-dark-style/resources/iOS-logo.png"
   inkscape:export-xdpi="96"
   inkscape:export-ydpi="96">
  <metadata
     id="metadata44">
    <rdf:RDF>
      <cc:Work
         rdf:about="">
        <dc:format>image/svg+xml</dc:format>
        <dc:type
           rdf:resource="http://purl.org/dc/dcmitype/StillImage" />
        <dc:title />
      </cc:Work>
    </rdf:RDF>
  </metadata>
  <sodipodi:namedview
     pagecolor="#ffffff"
     bordercolor="#666666"
     borderopacity="1"
     objecttolerance="10"
     gridtolerance="10"
     guidetolerance="10"
     inkscape:pageopacity="0"
     inkscape:pageshadow="2"
     inkscape:window-width="2560"
     inkscape:window-height="1377"
     id="namedview42"
     showgrid="false"
     inkscape:zoom="1.2040816"
     inkscape:cx="-42.440682"
     inkscape:cy="97.500008"
     inkscape:window-x="0"
     inkscape:window-y="30"
     inkscape:window-maximized="1"
     inkscape:current-layer="svg40"
     fit-margin-top="0"
     fit-margin-left="0"
     fit-margin-right="0"
     fit-margin-bottom="0" />
  <defs
     id="defs28">
    <linearGradient
       id="d"
       x1="98"
       x2="98"
       y1="98"
       y2="195.5"
       gradientUnits="userSpaceOnUse">
      <stop
         stop-color="#fff"
         offset="0"
         id="stop2" />
      <stop
         stop-color="#E9E5E5"
         offset="1"
         id="stop4" />
    </linearGradient>
    <linearGradient
       id="c"
       x1="104.61061"
       x2="104.61061"
       y2="37.039021"
       gradientTransform="scale(0.29208988,3.4236038)"
       y1="15.961631"
       gradientUnits="userSpaceOnUse">
      <stop
         stop-color="#0339F1"
         offset="0"
         id="stop7" />
      <stop
         stop-color="#01ADE5"
         offset="1"
         id="stop9" />
    </linearGradient>
    <linearGradient
       id="b"
       x1="54.804604"
       x2="101.43272"
       y1="58.307518"
       y2="109.79727"
       gradientTransform="scale(0.93053152,1.0746546)"
       gradientUnits="userSpaceOnUse">
      <stop
         stop-color="#0756EE"
         offset="0"
         id="stop12" />
      <stop
         stop-color="#00A3F5"
         offset=".37448"
         id="stop14" />
      <stop
         stop-color="#18B5B6"
         offset=".71708"
         id="stop16" />
      <stop
         stop-color="#80DF43"
         offset="1"
         id="stop18" />
    </linearGradient>
    <linearGradient
       id="a"
       x1="149.64282"
       x2="201.0253"
       y1="47.501324"
       y2="108.70309"
       gradientTransform="scale(0.82995643,1.2048825)"
       gradientUnits="userSpaceOnUse">
      <stop
         stop-color="#20BBA6"
         offset="0"
         id="stop21" />
      <stop
         stop-color="#9BEC23"
         offset=".4988"
         id="stop23" />
      <stop
         stop-color="#D9EF35"
         offset="1"
         id="stop25" />
    </linearGradient>
  </defs>
  <g
     id="g38"
     transform="matrix(2.5641026,0,0,2.5641026,-1.2820513,-1.2820513)"
     style="fill-rule:evenodd">
    <rect
       x="1"
       y="1"
       width="194"
       height="194"
       rx="45"
       id="rect30"
       style="fill:url(#d);stroke:#d9d9d9" />
    <path
       d="M 32.882,137.54 H 28.3187 V 76.561 H 32.882 Z M 30.5354,61.613 c -1.9244,0 -3.5158,-1.5265 -3.5158,-3.4509 0,-1.9812 1.5833,-3.5158 3.5158,-3.5158 1.9812,0 3.5564,1.5265 3.5564,3.5158 0,1.9244 -1.5752,3.4509 -3.5564,3.4509 z"
       id="path32"
       style="fill:url(#c)"
       inkscape:connector-curvature="0" />
    <path
       d="m 77.205,138.73 c -22.313,0 -36.409,-16.248 -36.409,-42.076 0,-25.699 14.161,-42.011 36.409,-42.011 22.248,0 36.401,16.313 36.401,42.011 0,25.829 -14.096,42.076 -36.401,42.076 z m 0,-79.89 c -19.422,0 -31.821,14.664 -31.821,37.813 0,23.166 12.456,37.887 31.821,37.887 19.422,0 31.821,-14.721 31.821,-37.887 0,-23.157 -12.399,-37.813 -31.821,-37.813 z"
       id="path34"
       style="fill:url(#b)"
       inkscape:connector-curvature="0" />
    <path
       d="m 146.1,138.73 c -16.751,0 -28.76,-9.4595 -29.442,-22.987 h 4.474 c 0.68206,11.092 11.1,18.854 25.309,18.854 13.868,0 23.547,-7.8761 23.547,-18.513 0,-8.5582 -5.7731,-13.479 -19.471,-16.93 l -9.6787,-2.3791 c -15.111,-3.8569 -21.972,-9.971 -21.972,-20.21 0,-12.74 11.895,-21.915 26.787,-21.915 15.395,0 26.892,9.0616 27.404,21.063 h -4.474 c -0.62522,-9.7924 -10.19,-16.93 -23.044,-16.93 -12.293,0 -22.086,7.3646 -22.086,17.668 0,8.1603 6.0005,12.854 19.13,16.134 l 9.1184,2.3222 c 15.793,3.9056 22.873,9.971 22.873,20.835 0,13.527 -11.376,22.987 -28.476,22.987 z"
       id="path36"
       style="fill:url(#a)"
       inkscape:connector-curvature="0" />
  </g>
</svg>
